<svg width="28" height="28" viewBox="0 0 28 28" fill="none" xmlns="http://www.w3.org/2000/svg">
<path d="M21.875 4.03125C21.2051 4.03125 20.5488 4.32812 20.043 4.90625L11.375 14.7812L11.1836 15L11.1289 15.3125L10.5273 18.8125L10.2539 20.2812L11.5391 19.9688L14.6016 19.2812L14.875 19.2188L15.0664 19L23.707 9.09375C24.7153 7.94141 24.7153 6.05859 23.707 4.90625C23.2012 4.32812 22.5449 4.03125 21.875 4.03125ZM21.875 5.96875C22.0801 5.96875 22.2817 6.08984 22.4766 6.3125C22.8662 6.75781 22.8662 7.24219 22.4766 7.6875L14 17.375L12.4961 17.7188L12.7969 16L21.2734 6.3125C21.4683 6.08984 21.6699 5.96875 21.875 5.96875ZM3.5 8V28H21V14.8125L19.25 16.8125V26H5.25V10H13.2891L15.0391 8H3.5Z" fill="#EFEFEF"/>
</svg>
