<svg width="17" height="16" viewBox="0 0 17 16" fill="none" xmlns="http://www.w3.org/2000/svg">
<path d="M16.4001 3.33998L13.6601 0.59998C13.3024 0.264076 12.8338 0.0713388 12.3434 0.058432C11.8529 0.0455252 11.3748 0.213349 11.0001 0.52998L2.00005 9.52998C1.67682 9.85594 1.47556 10.2832 1.43005 10.74L1.00005 14.91C0.986582 15.0564 1.00559 15.2041 1.05571 15.3424C1.10584 15.4806 1.18585 15.6062 1.29005 15.71C1.38349 15.8027 1.49431 15.876 1.61615 15.9258C1.73798 15.9755 1.86845 16.0007 2.00005 16H2.09005L6.26005 15.62C6.71685 15.5745 7.14409 15.3732 7.47005 15.05L16.4701 6.04998C16.8194 5.68095 17.0082 5.18849 16.995 4.68052C16.9819 4.17254 16.768 3.69049 16.4001 3.33998ZM6.08005 13.62L3.08005 13.9L3.35005 10.9L9.00005 5.31998L11.7001 8.01998L6.08005 13.62ZM13.0001 6.67998L10.3201 3.99998L12.2701 1.99998L15.0001 4.72998L13.0001 6.67998Z" fill="#827A98"/>
</svg>
