<svg width="23" height="19" viewBox="0 0 23 19" fill="none" xmlns="http://www.w3.org/2000/svg">
<path d="M0.432002 8.71425C0.29877 8.7946 0.189835 8.9021 0.114578 9.02751C0.0393209 9.15292 0 9.29247 0 9.43414C0 9.57582 0.0393209 9.71537 0.114578 9.84077C0.189835 9.96618 0.29877 10.0737 0.432002 10.154L13.4311 18.036C13.581 18.1273 13.7567 18.1808 13.9389 18.1907C14.1211 18.2007 14.3029 18.1667 14.4646 18.0925C14.6264 18.0183 14.7618 17.9067 14.8562 17.7698C14.9505 17.633 15.0003 17.476 15 17.3161L15 1.55214C14.9992 1.39261 14.9489 1.23628 14.8542 1.09995C14.7596 0.963633 14.6244 0.852479 14.463 0.778446C14.3017 0.704413 14.1204 0.670302 13.9385 0.679781C13.7567 0.689261 13.5813 0.741972 13.4311 0.832246L0.432002 8.71425Z" fill="#827A98"/>
<path d="M8.432 8.71425C8.29877 8.7946 8.18983 8.9021 8.11458 9.02751C8.03932 9.15292 8 9.29247 8 9.43414C8 9.57582 8.03932 9.71537 8.11458 9.84077C8.18983 9.96618 8.29877 10.0737 8.432 10.154L21.4311 18.036C21.581 18.1273 21.7567 18.1808 21.9389 18.1907C22.1211 18.2007 22.3029 18.1667 22.4646 18.0925C22.6264 18.0183 22.7618 17.9067 22.8562 17.7698C22.9505 17.633 23.0003 17.476 23 17.3161V1.55214C22.9992 1.39261 22.9489 1.23628 22.8542 1.09995C22.7596 0.963633 22.6244 0.852479 22.463 0.778446C22.3017 0.704413 22.1204 0.670302 21.9385 0.679781C21.7567 0.689261 21.5813 0.741972 21.4311 0.832246L8.432 8.71425Z" fill="#A49FB0"/>
</svg>
